<?xml version="1.0" standalone="no"?><!DOCTYPE svg PUBLIC "-//W3C//DTD SVG 1.1//EN" "http://www.w3.org/Graphics/SVG/1.1/DTD/svg11.dtd"><svg t="1495120490658" class="icon" style="" viewBox="0 0 1024 1024" version="1.1" xmlns="http://www.w3.org/2000/svg" p-id="7609" xmlns:xlink="http://www.w3.org/1999/xlink" width="200" height="200"><defs><style type="text/css"></style></defs><path d="M508.321726 958.424492c-265.328971 0-448.345238-200.717418-448.345238-448.440405 0-247.6401 200.719464-448.428126 448.345238-448.428126 247.682056 0 448.399473 200.788026 448.399473 448.428126C956.721199 757.706051 773.666046 958.424492 508.321726 958.424492L508.321726 958.424492zM508.321726 119.66338c-215.561497 0-390.278751 174.773536-390.278751 390.320707 0 100.838639 38.542828 192.449104 101.248985 261.727956 56.57246-27.368324 35.81674-4.558829 109.764939-34.994002 75.68782-31.148417 93.623307-42.021046 93.623307-42.021046l0.713244-71.701019c0 0-28.341488-21.51092-37.118386-89.00922-17.744129 5.079692-23.589254-20.688181-24.687262-37.117362-0.916882-15.773242-10.253528-65.309448 11.378142-60.873416-4.436032-32.983205-7.626701-62.775742-6.02318-78.616522 5.408173-55.383378 59.161425-113.298416 141.968385-117.502158 97.442286 4.13518 136.107911 62.063521 141.474129 117.445876 1.560542 15.772218-1.889023 45.63434-6.325056 78.603219 21.633716-4.368494 12.240789 45.045939 11.199063 60.886719-0.930185 16.375969-6.956436 42.020022-24.644283 36.94033-8.872065 67.554582-37.241182 88.899726-37.241182 88.899726l0.684592 71.38891c0 0 17.908882 10.118452 93.622284 41.265846 73.933873 30.435173 53.178153 9.036817 109.72503 36.461423 62.735833-69.26555 101.288894-160.89034 101.288894-261.715677C898.696668 294.436916 723.908806 119.66338 508.321726 119.66338L508.321726 119.66338zM508.321726 119.66338" p-id="7610"></path></svg>